<svg width="227" height="194" viewBox="0 0 227 194" fill="none" xmlns="http://www.w3.org/2000/svg">
<path d="M59.2899 193.43L43.5499 165.12L57.6499 139.71L45.0699 116.95H16.3299L0.629883 89.01L16.0599 60.79H49.0099L62.8299 85.83H88.0199L102.41 60.56H134.96L150.35 88.52L136.27 114.03L149.21 136.76L178.22 136.84L193.63 164.88L178.1 193.08L145.88 193.04L131.14 167.48H106.09C106.09 167.48 93.0099 190.48 91.3199 193.43H59.2699H59.2899ZM51.5099 168.12L62.5699 187.57H84.6899L73.5799 168.04L51.5199 168.12H51.5099ZM183.86 167.95C182.18 167.97 180.57 167.99 178.96 168L173.05 168.05C169.99 168.08 166.92 168.1 163.86 168.12H163.39L163.16 168.53C160.41 173.39 157.65 178.25 154.88 183.11L152.48 187.33H174.6L174.83 186.92C177.01 183.06 179.22 179.19 181.42 175.31L181.34 175.35C181.58 175.02 181.94 174.38 182.63 173.18L185.62 167.93L183.87 167.95H183.86ZM78.4999 164.96L89.6999 184.59L100.97 164.83L89.9299 145.48L78.4999 164.96ZM136.38 164.93L147.45 184.34L158.37 165.19L147.3 145.77L136.38 164.93ZM51.4999 162.26L70.1899 162.17L69.4999 160.97C69.4999 160.97 64.3499 151.93 61.7499 147.37L60.8699 145.82L51.4999 162.27V162.26ZM166.78 162.22L185.64 162.06L184.97 160.87C182.8 156.99 179.2 150.69 176.95 146.81L176.24 145.59L166.77 162.22H166.78ZM109.29 161.66H131.27L142.33 142.21H120.98L109.3 161.66H109.29ZM161.72 159.3L171.22 142.6H152.2L161.71 159.3H161.72ZM66.3599 143.41C67.0699 144.67 67.9399 146.25 68.8799 147.94C70.7899 151.38 72.9499 155.28 74.4699 157.89L75.1699 159.09L75.8699 157.9C77.4199 155.25 84.2799 143.43 84.2799 143.43L84.9899 142.21H65.6799L66.3599 143.42V143.41ZM104.21 158.8L114.15 142.2C114.15 142.2 109.04 142.2 107.21 142.2H94.7999L104.22 158.79L104.21 158.8ZM66.6499 134.79L65.7099 136.68L88.0299 136.4L99.1199 116.91H75.4799C75.4799 116.91 69.5299 128.97 66.6499 134.79ZM120.97 136.36H142.32L141.63 135.15C138.25 129.21 134.87 123.28 131.5 117.34L131.27 116.93H109.31L120.97 136.36ZM103.5 120.95C101.24 124.86 97.6299 131.23 95.4599 135.15L94.7899 136.36H96.1699C101.7 136.35 107.22 136.35 112.73 136.35H114.16L104.19 119.77L103.5 120.96V120.95ZM60.8299 133.42L68.9699 116.98H51.7599L60.8299 133.42ZM22.9999 111.09L41.7099 111.04L32.3499 94.62L22.9899 111.1L22.9999 111.09ZM109.92 111.05H131.28L142.14 91.6H121.02L109.92 111.05ZM75.4599 111.05H99.1299L88.0699 91.6H65.8599L75.4599 111.05ZM51.8599 111.02H68.9399L61.0199 94.91L51.8599 111.02ZM94.7799 91.68L104.5 108.77L114.3 91.6L94.7799 91.68ZM6.93988 88.72L17.9899 108.1L29.0599 88.68L17.9899 69.28L6.93988 88.72ZM46.7899 108.09L56.1499 91.65H37.4199L46.7799 108.09H46.7899ZM34.0899 85.79H56.1799L45.1199 66.34H23.0399L34.0899 85.79ZM120.99 85.76H142.34L131.29 66.33H109.34L120.99 85.76ZM94.8099 85.73H114.18L104.24 69.17L94.8099 85.73Z" fill="url(#paint0_linear_1202_11457)"/>
<path opacity="0.5" d="M109.77 175.09H127.58L133.43 185.22H104.04L109.77 175.09Z" fill="#62AEFF"/>
<path opacity="0.5" d="M49.9499 140.06L29.7299 175.09H41.0699L46.7599 185.22H12.1599L44.2099 129.73L49.9499 140.06Z" fill="#62AEFF"/>
<path opacity="0.5" d="M195.96 175.09H208.5L119.12 20.27L85.2998 78.84L73.5999 78.83L119.12 0L226.06 185.22H190.34L195.96 175.09Z" fill="#62AEFF"/>
<defs>
<linearGradient id="paint0_linear_1202_11457" x1="163.62" y1="60.4" x2="20.9199" y2="203.11" gradientUnits="userSpaceOnUse">
<stop offset="0.03" stop-color="#439EFF"/>
<stop offset="0.16" stop-color="#3B94F4"/>
<stop offset="0.39" stop-color="#267CD7"/>
<stop offset="0.62" stop-color="#0E5FB5"/>
</linearGradient>
</defs>
</svg>