<?xml version="1.0" encoding="UTF-8" standalone="no"?>
<svg
   xmlns:dc="http://purl.org/dc/elements/1.1/"
   xmlns:cc="http://creativecommons.org/ns#"
   xmlns:rdf="http://www.w3.org/1999/02/22-rdf-syntax-ns#"
   xmlns:svg="http://www.w3.org/2000/svg"
   xmlns="http://www.w3.org/2000/svg"
   xmlns:sodipodi="http://sodipodi.sourceforge.net/DTD/sodipodi-0.dtd"
   xmlns:inkscape="http://www.inkscape.org/namespaces/inkscape"
   version="1.1"
   id="svg2"
   xml:space="preserve"
   width="462.3624"
   height="521.65338"
   viewBox="0 0 462.36241 521.65338"
   sodipodi:docname="replication.svg"
   inkscape:version="1.0.2 (e86c870879, 2021-01-15, custom)"><metadata
     id="metadata8"><rdf:RDF><cc:Work
         rdf:about=""><dc:format>image/svg+xml</dc:format><dc:type
           rdf:resource="http://purl.org/dc/dcmitype/StillImage" /><dc:title></dc:title></cc:Work></rdf:RDF></metadata><defs
     id="defs6"><clipPath
       clipPathUnits="userSpaceOnUse"
       id="clipPath20"><path
         d="M 0,0 H 1024 V 768 H 0 Z"
         id="path18" /></clipPath><clipPath
       clipPathUnits="userSpaceOnUse"
       id="clipPath32"><path
         d="m 176.2051,610.2546 h 349.5182 v 58.49062 H 176.2051 Z"
         id="path30" /></clipPath><clipPath
       clipPathUnits="userSpaceOnUse"
       id="clipPath46"><path
         d="m 177.9197,510.54 h 27.3226 v 28.2035 h -27.3226 z"
         id="path44" /></clipPath><clipPath
       clipPathUnits="userSpaceOnUse"
       id="clipPath52"><path
         d="M 204.2423,537.7435 V 511.54 h -25.3226 z"
         id="path50" /></clipPath><clipPath
       clipPathUnits="userSpaceOnUse"
       id="clipPath58"><path
         d="M 204.2423,537.7435 V 511.54 h -25.3226 z"
         id="path56" /></clipPath><linearGradient
       x1="0"
       y1="0"
       x2="100"
       y2="0"
       gradientUnits="userSpaceOnUse"
       gradientTransform="matrix(0,-0.2820344,0.2732259,0,191.581,538.7435)"
       spreadMethod="pad"
       id="linearGradient72"><stop
         style="stop-opacity:1;stop-color:#9fc2e6"
         offset="0"
         id="stop68" /><stop
         style="stop-opacity:1;stop-color:#5178a1"
         offset="1"
         id="stop70" /></linearGradient><linearGradient
       x1="0"
       y1="0"
       x2="100"
       y2="0"
       gradientUnits="userSpaceOnUse"
       gradientTransform="matrix(0,-0.2820344,-2.97285,0,351.8585,538.7435)"
       spreadMethod="pad"
       id="linearGradient90"><stop
         style="stop-opacity:1;stop-color:#9fc2e6"
         offset="0"
         id="stop86" /><stop
         style="stop-opacity:1;stop-color:#5178a1"
         offset="1"
         id="stop88" /></linearGradient><clipPath
       clipPathUnits="userSpaceOnUse"
       id="clipPath100"><path
         d="m 203.8507,511.3782 h 296.0155 v 26.36523 H 203.8507 Z"
         id="path98" /></clipPath><clipPath
       clipPathUnits="userSpaceOnUse"
       id="clipPath114"><path
         d="m 525.7972,510.54 h -27.3225 v 28.2035 h 27.3225 z"
         id="path112" /></clipPath><clipPath
       clipPathUnits="userSpaceOnUse"
       id="clipPath120"><path
         d="M 499.4747,537.7435 V 511.54 h 25.3225 z"
         id="path118" /></clipPath><clipPath
       clipPathUnits="userSpaceOnUse"
       id="clipPath126"><path
         d="M 499.4747,537.7435 V 511.54 h 25.3225 z"
         id="path124" /></clipPath><linearGradient
       x1="0"
       y1="0"
       x2="100"
       y2="0"
       gradientUnits="userSpaceOnUse"
       gradientTransform="matrix(0,-0.2820344,-0.2732259,0,512.136,538.7435)"
       spreadMethod="pad"
       id="linearGradient140"><stop
         style="stop-opacity:1;stop-color:#9fc2e6"
         offset="0"
         id="stop136" /><stop
         style="stop-opacity:1;stop-color:#5178a1"
         offset="1"
         id="stop138" /></linearGradient><clipPath
       clipPathUnits="userSpaceOnUse"
       id="clipPath150"><path
         d="m 224.4223,439 c -9.9713,0 -19.3553,-1.9987 -26.3849,-5.6599 -6.6285,-3.4393 -10.4286,-8.0123 -10.4286,-12.5333 0,-4.521 3.8001,-9.1027 10.4286,-12.542 7.0296,-3.6334 16.4136,-5.6599 26.3849,-5.6599 9.9714,0 19.3494,1.9987 26.379,5.6599 6.6285,3.4393 10.4286,8.021 10.4286,12.542 0,4.521 -3.8001,9.094 -10.4286,12.5333 -7.0296,3.6334 -16.4076,5.6599 -26.379,5.6599 z m -37.7268,-22.943 v -7.1768 c 0,-10.7893 16.903,-19.554 37.7626,-19.554 20.8597,0 37.7269,8.7369 37.7269,19.554 v 7.1768 c -1.6237,-3.9663 -5.2889,-7.5651 -10.733,-10.3664 -7.2398,-3.7444 -16.8303,-5.7986 -27.0118,-5.7986 -10.1814,0 -19.791,2.0542 -27.0117,5.7986 -5.4441,2.8291 -9.1094,6.4001 -10.733,10.3664 z m -0.0418,-14.3362 v -4.9058 c 0,-10.7894 16.909,-19.554 37.7686,-19.554 20.8597,0 37.7627,8.7369 37.7627,19.554 v 4.9058 c -0.4967,-0.8875 -1.0673,-1.7508 -1.755,-2.5829 -2.063,-2.5517 -4.9869,-4.7949 -8.6736,-6.7087 -7.3353,-3.7999 -17.038,-5.8766 -27.3341,-5.8766 -10.2961,0 -20.0048,2.0767 -27.34,5.8766 -3.6867,1.9138 -6.5855,4.157 -8.6676,6.7087 -0.6877,0.8321 -1.2644,1.6953 -1.761,2.5829 z m 0,-12.0652 v -4.9059 c 0,-10.7894 16.909,-19.554 37.7686,-19.554 20.8597,0 37.7627,8.7369 37.7627,19.554 v 4.9059 c -0.4967,-0.8876 -1.0673,-1.7509 -1.755,-2.583 -2.063,-2.5517 -4.9869,-4.7948 -8.6736,-6.7086 -7.3353,-3.7999 -17.038,-5.8766 -27.3341,-5.8766 -10.2961,0 -20.0048,2.0767 -27.34,5.8766 -3.6867,1.9138 -6.5855,4.1569 -8.6676,6.7086 -0.6877,0.8321 -1.2644,1.6954 -1.761,2.583 z m 0,-12.0653 v -4.9058 c 0,-10.7894 16.909,-19.554 37.7686,-19.554 20.8597,0 37.7627,8.7369 37.7627,19.554 v 4.9058 c -0.4967,-0.8875 -1.0673,-1.7508 -1.755,-2.5829 -2.063,-2.5517 -4.9869,-4.7948 -8.6736,-6.7087 -7.3353,-3.7999 -17.038,-5.8766 -27.3341,-5.8766 -10.2961,0 -20.0048,2.0768 -27.34,5.8766 -3.6867,1.9138 -6.5855,4.157 -8.6676,6.7087 -0.6877,0.8321 -1.2644,1.6954 -1.761,2.5829 z m 0,-12.0652 v -4.9058 c 0,-10.7894 16.909,-19.5541 37.7686,-19.5541 20.8597,0 37.7627,8.7369 37.7627,19.5541 v 4.9058 c -0.4967,-0.8876 -1.0673,-1.7508 -1.755,-2.5829 -2.063,-2.5518 -4.9869,-4.7949 -8.6736,-6.7087 -7.3353,-3.7999 -17.038,-5.8766 -27.3341,-5.8766 -10.2961,0 -20.0048,2.0767 -27.34,5.8766 -3.6867,1.9138 -6.5855,4.157 -8.6676,6.7087 -0.6877,0.8321 -1.2644,1.6954 -1.761,2.5829 z m 0,-12.0653 v -4.9058 c 0,-10.7894 16.909,-19.554 37.7686,-19.554 20.8597,0 37.7627,8.7646 37.7627,19.554 v 4.9058 c -0.4967,-0.8875 -1.0673,-1.7508 -1.755,-2.5829 -2.063,-2.5517 -4.9869,-4.7948 -8.6736,-6.7087 -7.3353,-3.7998 -17.038,-5.8766 -27.3341,-5.8766 -10.2961,0 -20.0048,2.0768 -27.34,5.8766 -3.6867,1.9139 -6.5855,4.157 -8.6676,6.7087 -0.6877,0.8321 -1.2644,1.6954 -1.761,2.5829 z"
         id="path148" /></clipPath><clipPath
       clipPathUnits="userSpaceOnUse"
       id="clipPath156"><path
         d="m 224.4223,439 c -9.9713,0 -19.3553,-1.9987 -26.3849,-5.6599 -6.6285,-3.4393 -10.4286,-8.0123 -10.4286,-12.5333 0,-4.521 3.8001,-9.1027 10.4286,-12.542 7.0296,-3.6334 16.4136,-5.6599 26.3849,-5.6599 9.9714,0 19.3494,1.9987 26.379,5.6599 6.6285,3.4393 10.4286,8.021 10.4286,12.542 0,4.521 -3.8001,9.094 -10.4286,12.5333 -7.0296,3.6334 -16.4076,5.6599 -26.379,5.6599 z m -37.7268,-22.943 v -7.1768 c 0,-10.7893 16.903,-19.554 37.7626,-19.554 20.8597,0 37.7269,8.7369 37.7269,19.554 v 7.1768 c -1.6237,-3.9663 -5.2889,-7.5651 -10.733,-10.3664 -7.2398,-3.7444 -16.8303,-5.7986 -27.0118,-5.7986 -10.1814,0 -19.791,2.0542 -27.0117,5.7986 -5.4441,2.8291 -9.1094,6.4001 -10.733,10.3664 z m -0.0418,-14.3362 v -4.9058 c 0,-10.7894 16.909,-19.554 37.7686,-19.554 20.8597,0 37.7627,8.7369 37.7627,19.554 v 4.9058 c -0.4967,-0.8875 -1.0673,-1.7508 -1.755,-2.5829 -2.063,-2.5517 -4.9869,-4.7949 -8.6736,-6.7087 -7.3353,-3.7999 -17.038,-5.8766 -27.3341,-5.8766 -10.2961,0 -20.0048,2.0767 -27.34,5.8766 -3.6867,1.9138 -6.5855,4.157 -8.6676,6.7087 -0.6877,0.8321 -1.2644,1.6953 -1.761,2.5829 z m 0,-12.0652 v -4.9059 c 0,-10.7894 16.909,-19.554 37.7686,-19.554 20.8597,0 37.7627,8.7369 37.7627,19.554 v 4.9059 c -0.4967,-0.8876 -1.0673,-1.7509 -1.755,-2.583 -2.063,-2.5517 -4.9869,-4.7948 -8.6736,-6.7086 -7.3353,-3.7999 -17.038,-5.8766 -27.3341,-5.8766 -10.2961,0 -20.0048,2.0767 -27.34,5.8766 -3.6867,1.9138 -6.5855,4.1569 -8.6676,6.7086 -0.6877,0.8321 -1.2644,1.6954 -1.761,2.583 z m 0,-12.0653 v -4.9058 c 0,-10.7894 16.909,-19.554 37.7686,-19.554 20.8597,0 37.7627,8.7369 37.7627,19.554 v 4.9058 c -0.4967,-0.8875 -1.0673,-1.7508 -1.755,-2.5829 -2.063,-2.5517 -4.9869,-4.7948 -8.6736,-6.7087 -7.3353,-3.7999 -17.038,-5.8766 -27.3341,-5.8766 -10.2961,0 -20.0048,2.0768 -27.34,5.8766 -3.6867,1.9138 -6.5855,4.157 -8.6676,6.7087 -0.6877,0.8321 -1.2644,1.6954 -1.761,2.5829 z m 0,-12.0652 v -4.9058 c 0,-10.7894 16.909,-19.5541 37.7686,-19.5541 20.8597,0 37.7627,8.7369 37.7627,19.5541 v 4.9058 c -0.4967,-0.8876 -1.0673,-1.7508 -1.755,-2.5829 -2.063,-2.5518 -4.9869,-4.7949 -8.6736,-6.7087 -7.3353,-3.7999 -17.038,-5.8766 -27.3341,-5.8766 -10.2961,0 -20.0048,2.0767 -27.34,5.8766 -3.6867,1.9138 -6.5855,4.157 -8.6676,6.7087 -0.6877,0.8321 -1.2644,1.6954 -1.761,2.5829 z m 0,-12.0653 v -4.9058 c 0,-10.7894 16.909,-19.554 37.7686,-19.554 20.8597,0 37.7627,8.7646 37.7627,19.554 v 4.9058 c -0.4967,-0.8875 -1.0673,-1.7508 -1.755,-2.5829 -2.063,-2.5517 -4.9869,-4.7948 -8.6736,-6.7087 -7.3353,-3.7998 -17.038,-5.8766 -27.3341,-5.8766 -10.2961,0 -20.0048,2.0768 -27.34,5.8766 -3.6867,1.9139 -6.5855,4.157 -8.6676,6.7087 -0.6877,0.8321 -1.2644,1.6954 -1.761,2.5829 z"
         id="path154" /></clipPath><linearGradient
       x1="0"
       y1="0"
       x2="100"
       y2="0"
       gradientUnits="userSpaceOnUse"
       gradientTransform="matrix(0,-1.12,-0.7753135,0,224.4193,440)"
       spreadMethod="pad"
       id="linearGradient170"><stop
         style="stop-opacity:1;stop-color:#9fc2e6"
         offset="0"
         id="stop166" /><stop
         style="stop-opacity:1;stop-color:#5178a1"
         offset="1"
         id="stop168" /></linearGradient><clipPath
       clipPathUnits="userSpaceOnUse"
       id="clipPath180"><path
         d="M 0,0 H 1024 V 768 H 0 Z"
         id="path178" /></clipPath><clipPath
       clipPathUnits="userSpaceOnUse"
       id="clipPath194"><path
         d="m 479.3005,439 c -9.9713,0 -19.3553,-1.9987 -26.3849,-5.6599 -6.6285,-3.4393 -10.4286,-8.0123 -10.4286,-12.5333 0,-4.521 3.8001,-9.1027 10.4286,-12.542 7.0296,-3.6334 16.4136,-5.6599 26.3849,-5.6599 9.9714,0 19.3494,1.9987 26.379,5.6599 6.6285,3.4393 10.4286,8.021 10.4286,12.542 0,4.521 -3.8001,9.094 -10.4286,12.5333 -7.0296,3.6334 -16.4076,5.6599 -26.379,5.6599 z m -37.7268,-22.943 v -7.1768 c 0,-10.7893 16.903,-19.554 37.7627,-19.554 20.8596,0 37.7268,8.7369 37.7268,19.554 v 7.1768 c -1.6236,-3.9663 -5.2889,-7.5651 -10.733,-10.3664 -7.2398,-3.7444 -16.8303,-5.7986 -27.0117,-5.7986 -10.1815,0 -19.7911,2.0542 -27.0118,5.7986 -5.4441,2.8291 -9.1093,6.4001 -10.733,10.3664 z m -0.0418,-14.3362 v -4.9058 c 0,-10.7894 16.909,-19.554 37.7686,-19.554 20.8597,0 37.7627,8.7369 37.7627,19.554 v 4.9058 c -0.4966,-0.8875 -1.0673,-1.7508 -1.755,-2.5829 -2.063,-2.5517 -4.9869,-4.7949 -8.6736,-6.7087 -7.3352,-3.7999 -17.038,-5.8766 -27.3341,-5.8766 -10.296,0 -20.0047,2.0767 -27.34,5.8766 -3.6867,1.9138 -6.5855,4.157 -8.6676,6.7087 -0.6877,0.8321 -1.2644,1.6953 -1.761,2.5829 z m 0,-12.0652 v -4.9059 c 0,-10.7894 16.909,-19.554 37.7686,-19.554 20.8597,0 37.7627,8.7369 37.7627,19.554 v 4.9059 c -0.4966,-0.8876 -1.0673,-1.7509 -1.755,-2.583 -2.063,-2.5517 -4.9869,-4.7948 -8.6736,-6.7086 -7.3352,-3.7999 -17.0379,-5.8766 -27.3341,-5.8766 -10.296,0 -20.0047,2.0767 -27.34,5.8766 -3.6867,1.9138 -6.5855,4.1569 -8.6676,6.7086 -0.6877,0.8321 -1.2644,1.6954 -1.761,2.583 z m 0,-12.0653 v -4.9058 c 0,-10.7894 16.909,-19.554 37.7686,-19.554 20.8597,0 37.7627,8.7369 37.7627,19.554 v 4.9058 c -0.4966,-0.8875 -1.0673,-1.7508 -1.755,-2.5829 -2.063,-2.5517 -4.9869,-4.7948 -8.6736,-6.7087 -7.3352,-3.7999 -17.038,-5.8766 -27.3341,-5.8766 -10.296,0 -20.0047,2.0768 -27.34,5.8766 -3.6867,1.9138 -6.5855,4.157 -8.6676,6.7087 -0.6877,0.8321 -1.2644,1.6954 -1.761,2.5829 z m 0,-12.0652 v -4.9058 c 0,-10.7894 16.909,-19.5541 37.7686,-19.5541 20.8597,0 37.7627,8.7369 37.7627,19.5541 v 4.9058 c -0.4966,-0.8876 -1.0673,-1.7508 -1.755,-2.5829 -2.063,-2.5518 -4.9869,-4.7949 -8.6736,-6.7087 -7.3352,-3.7999 -17.038,-5.8766 -27.3341,-5.8766 -10.296,0 -20.0047,2.0767 -27.34,5.8766 -3.6867,1.9138 -6.5855,4.157 -8.6676,6.7087 -0.6877,0.8321 -1.2644,1.6954 -1.761,2.5829 z m 0,-12.0653 v -4.9058 c 0,-10.7894 16.909,-19.554 37.7686,-19.554 20.8597,0 37.7627,8.7646 37.7627,19.554 v 4.9058 c -0.4966,-0.8875 -1.0673,-1.7508 -1.755,-2.5829 -2.063,-2.5517 -4.9869,-4.7948 -8.6736,-6.7087 -7.3352,-3.7998 -17.0379,-5.8766 -27.3341,-5.8766 -10.296,0 -20.0047,2.0768 -27.34,5.8766 -3.6867,1.9139 -6.5855,4.157 -8.6676,6.7087 -0.6877,0.8321 -1.2644,1.6954 -1.761,2.5829 z"
         id="path192" /></clipPath><clipPath
       clipPathUnits="userSpaceOnUse"
       id="clipPath200"><path
         d="m 479.3005,439 c -9.9713,0 -19.3553,-1.9987 -26.3849,-5.6599 -6.6285,-3.4393 -10.4286,-8.0123 -10.4286,-12.5333 0,-4.521 3.8001,-9.1027 10.4286,-12.542 7.0296,-3.6334 16.4136,-5.6599 26.3849,-5.6599 9.9714,0 19.3494,1.9987 26.379,5.6599 6.6285,3.4393 10.4286,8.021 10.4286,12.542 0,4.521 -3.8001,9.094 -10.4286,12.5333 -7.0296,3.6334 -16.4076,5.6599 -26.379,5.6599 z m -37.7268,-22.943 v -7.1768 c 0,-10.7893 16.903,-19.554 37.7627,-19.554 20.8596,0 37.7268,8.7369 37.7268,19.554 v 7.1768 c -1.6236,-3.9663 -5.2889,-7.5651 -10.733,-10.3664 -7.2398,-3.7444 -16.8303,-5.7986 -27.0117,-5.7986 -10.1815,0 -19.7911,2.0542 -27.0118,5.7986 -5.4441,2.8291 -9.1093,6.4001 -10.733,10.3664 z m -0.0418,-14.3362 v -4.9058 c 0,-10.7894 16.909,-19.554 37.7686,-19.554 20.8597,0 37.7627,8.7369 37.7627,19.554 v 4.9058 c -0.4966,-0.8875 -1.0673,-1.7508 -1.755,-2.5829 -2.063,-2.5517 -4.9869,-4.7949 -8.6736,-6.7087 -7.3352,-3.7999 -17.038,-5.8766 -27.3341,-5.8766 -10.296,0 -20.0047,2.0767 -27.34,5.8766 -3.6867,1.9138 -6.5855,4.157 -8.6676,6.7087 -0.6877,0.8321 -1.2644,1.6953 -1.761,2.5829 z m 0,-12.0652 v -4.9059 c 0,-10.7894 16.909,-19.554 37.7686,-19.554 20.8597,0 37.7627,8.7369 37.7627,19.554 v 4.9059 c -0.4966,-0.8876 -1.0673,-1.7509 -1.755,-2.583 -2.063,-2.5517 -4.9869,-4.7948 -8.6736,-6.7086 -7.3352,-3.7999 -17.0379,-5.8766 -27.3341,-5.8766 -10.296,0 -20.0047,2.0767 -27.34,5.8766 -3.6867,1.9138 -6.5855,4.1569 -8.6676,6.7086 -0.6877,0.8321 -1.2644,1.6954 -1.761,2.583 z m 0,-12.0653 v -4.9058 c 0,-10.7894 16.909,-19.554 37.7686,-19.554 20.8597,0 37.7627,8.7369 37.7627,19.554 v 4.9058 c -0.4966,-0.8875 -1.0673,-1.7508 -1.755,-2.5829 -2.063,-2.5517 -4.9869,-4.7948 -8.6736,-6.7087 -7.3352,-3.7999 -17.038,-5.8766 -27.3341,-5.8766 -10.296,0 -20.0047,2.0768 -27.34,5.8766 -3.6867,1.9138 -6.5855,4.157 -8.6676,6.7087 -0.6877,0.8321 -1.2644,1.6954 -1.761,2.5829 z m 0,-12.0652 v -4.9058 c 0,-10.7894 16.909,-19.5541 37.7686,-19.5541 20.8597,0 37.7627,8.7369 37.7627,19.5541 v 4.9058 c -0.4966,-0.8876 -1.0673,-1.7508 -1.755,-2.5829 -2.063,-2.5518 -4.9869,-4.7949 -8.6736,-6.7087 -7.3352,-3.7999 -17.038,-5.8766 -27.3341,-5.8766 -10.296,0 -20.0047,2.0767 -27.34,5.8766 -3.6867,1.9138 -6.5855,4.157 -8.6676,6.7087 -0.6877,0.8321 -1.2644,1.6954 -1.761,2.5829 z m 0,-12.0653 v -4.9058 c 0,-10.7894 16.909,-19.554 37.7686,-19.554 20.8597,0 37.7627,8.7646 37.7627,19.554 v 4.9058 c -0.4966,-0.8875 -1.0673,-1.7508 -1.755,-2.5829 -2.063,-2.5517 -4.9869,-4.7948 -8.6736,-6.7087 -7.3352,-3.7998 -17.0379,-5.8766 -27.3341,-5.8766 -10.296,0 -20.0047,2.0768 -27.34,5.8766 -3.6867,1.9139 -6.5855,4.157 -8.6676,6.7087 -0.6877,0.8321 -1.2644,1.6954 -1.761,2.5829 z"
         id="path198" /></clipPath><linearGradient
       x1="0"
       y1="0"
       x2="100"
       y2="0"
       gradientUnits="userSpaceOnUse"
       gradientTransform="matrix(0,-1.12,-0.7753135,0,479.2976,440)"
       spreadMethod="pad"
       id="linearGradient214"><stop
         style="stop-opacity:1;stop-color:#9fc2e6"
         offset="0"
         id="stop210" /><stop
         style="stop-opacity:1;stop-color:#5178a1"
         offset="1"
         id="stop212" /></linearGradient><clipPath
       clipPathUnits="userSpaceOnUse"
       id="clipPath224"><path
         d="M 0,0 H 1024 V 768 H 0 Z"
         id="path222" /></clipPath><clipPath
       clipPathUnits="userSpaceOnUse"
       id="clipPath238"><path
         d="m 351.8614,439 c -9.9713,0 -19.3553,-1.9987 -26.3849,-5.6599 -6.6285,-3.4393 -10.4286,-8.0123 -10.4286,-12.5333 0,-4.521 3.8001,-9.1027 10.4286,-12.542 7.0296,-3.6334 16.4136,-5.6599 26.3849,-5.6599 9.9714,0 19.3494,1.9987 26.379,5.6599 6.6285,3.4393 10.4286,8.021 10.4286,12.542 0,4.521 -3.8001,9.094 -10.4286,12.5333 -7.0296,3.6334 -16.4076,5.6599 -26.379,5.6599 z m -37.7268,-22.943 v -7.1768 c 0,-10.7893 16.903,-19.554 37.7627,-19.554 20.8596,0 37.7268,8.7369 37.7268,19.554 v 7.1768 c -1.6237,-3.9663 -5.2889,-7.5651 -10.733,-10.3664 -7.2398,-3.7444 -16.8303,-5.7986 -27.0118,-5.7986 -10.1814,0 -19.791,2.0542 -27.0117,5.7986 -5.4441,2.8291 -9.1094,6.4001 -10.733,10.3664 z m -0.0418,-14.3362 v -4.9058 c 0,-10.7894 16.909,-19.554 37.7686,-19.554 20.8597,0 37.7627,8.7369 37.7627,19.554 v 4.9058 c -0.4967,-0.8875 -1.0673,-1.7508 -1.755,-2.5829 -2.063,-2.5517 -4.9869,-4.7949 -8.6736,-6.7087 -7.3353,-3.7999 -17.038,-5.8766 -27.3341,-5.8766 -10.2961,0 -20.0048,2.0767 -27.34,5.8766 -3.6867,1.9138 -6.5855,4.157 -8.6676,6.7087 -0.6877,0.8321 -1.2644,1.6953 -1.761,2.5829 z m 0,-12.0652 v -4.9059 c 0,-10.7894 16.909,-19.554 37.7686,-19.554 20.8597,0 37.7627,8.7369 37.7627,19.554 v 4.9059 c -0.4967,-0.8876 -1.0673,-1.7509 -1.755,-2.583 -2.063,-2.5517 -4.9869,-4.7948 -8.6736,-6.7086 -7.3353,-3.7999 -17.038,-5.8766 -27.3341,-5.8766 -10.2961,0 -20.0048,2.0767 -27.34,5.8766 -3.6867,1.9138 -6.5855,4.1569 -8.6676,6.7086 -0.6877,0.8321 -1.2644,1.6954 -1.761,2.583 z m 0,-12.0653 v -4.9058 c 0,-10.7894 16.909,-19.554 37.7686,-19.554 20.8597,0 37.7627,8.7369 37.7627,19.554 v 4.9058 c -0.4967,-0.8875 -1.0673,-1.7508 -1.755,-2.5829 -2.063,-2.5517 -4.9869,-4.7948 -8.6736,-6.7087 -7.3353,-3.7999 -17.038,-5.8766 -27.3341,-5.8766 -10.2961,0 -20.0048,2.0768 -27.34,5.8766 -3.6867,1.9138 -6.5855,4.157 -8.6676,6.7087 -0.6877,0.8321 -1.2644,1.6954 -1.761,2.5829 z m 0,-12.0652 v -4.9058 c 0,-10.7894 16.909,-19.5541 37.7686,-19.5541 20.8597,0 37.7627,8.7369 37.7627,19.5541 v 4.9058 c -0.4967,-0.8876 -1.0673,-1.7508 -1.755,-2.5829 -2.063,-2.5518 -4.9869,-4.7949 -8.6736,-6.7087 -7.3353,-3.7999 -17.038,-5.8766 -27.3341,-5.8766 -10.2961,0 -20.0048,2.0767 -27.34,5.8766 -3.6867,1.9138 -6.5855,4.157 -8.6676,6.7087 -0.6877,0.8321 -1.2644,1.6954 -1.761,2.5829 z m 0,-12.0653 v -4.9058 c 0,-10.7894 16.909,-19.554 37.7686,-19.554 20.8597,0 37.7627,8.7646 37.7627,19.554 v 4.9058 c -0.4967,-0.8875 -1.0673,-1.7508 -1.755,-2.5829 -2.063,-2.5517 -4.9869,-4.7948 -8.6736,-6.7087 -7.3353,-3.7998 -17.038,-5.8766 -27.3341,-5.8766 -10.2961,0 -20.0048,2.0768 -27.34,5.8766 -3.6867,1.9139 -6.5855,4.157 -8.6676,6.7087 -0.6877,0.8321 -1.2644,1.6954 -1.761,2.5829 z"
         id="path236" /></clipPath><clipPath
       clipPathUnits="userSpaceOnUse"
       id="clipPath244"><path
         d="m 351.8614,439 c -9.9713,0 -19.3553,-1.9987 -26.3849,-5.6599 -6.6285,-3.4393 -10.4286,-8.0123 -10.4286,-12.5333 0,-4.521 3.8001,-9.1027 10.4286,-12.542 7.0296,-3.6334 16.4136,-5.6599 26.3849,-5.6599 9.9714,0 19.3494,1.9987 26.379,5.6599 6.6285,3.4393 10.4286,8.021 10.4286,12.542 0,4.521 -3.8001,9.094 -10.4286,12.5333 -7.0296,3.6334 -16.4076,5.6599 -26.379,5.6599 z m -37.7268,-22.943 v -7.1768 c 0,-10.7893 16.903,-19.554 37.7627,-19.554 20.8596,0 37.7268,8.7369 37.7268,19.554 v 7.1768 c -1.6237,-3.9663 -5.2889,-7.5651 -10.733,-10.3664 -7.2398,-3.7444 -16.8303,-5.7986 -27.0118,-5.7986 -10.1814,0 -19.791,2.0542 -27.0117,5.7986 -5.4441,2.8291 -9.1094,6.4001 -10.733,10.3664 z m -0.0418,-14.3362 v -4.9058 c 0,-10.7894 16.909,-19.554 37.7686,-19.554 20.8597,0 37.7627,8.7369 37.7627,19.554 v 4.9058 c -0.4967,-0.8875 -1.0673,-1.7508 -1.755,-2.5829 -2.063,-2.5517 -4.9869,-4.7949 -8.6736,-6.7087 -7.3353,-3.7999 -17.038,-5.8766 -27.3341,-5.8766 -10.2961,0 -20.0048,2.0767 -27.34,5.8766 -3.6867,1.9138 -6.5855,4.157 -8.6676,6.7087 -0.6877,0.8321 -1.2644,1.6953 -1.761,2.5829 z m 0,-12.0652 v -4.9059 c 0,-10.7894 16.909,-19.554 37.7686,-19.554 20.8597,0 37.7627,8.7369 37.7627,19.554 v 4.9059 c -0.4967,-0.8876 -1.0673,-1.7509 -1.755,-2.583 -2.063,-2.5517 -4.9869,-4.7948 -8.6736,-6.7086 -7.3353,-3.7999 -17.038,-5.8766 -27.3341,-5.8766 -10.2961,0 -20.0048,2.0767 -27.34,5.8766 -3.6867,1.9138 -6.5855,4.1569 -8.6676,6.7086 -0.6877,0.8321 -1.2644,1.6954 -1.761,2.583 z m 0,-12.0653 v -4.9058 c 0,-10.7894 16.909,-19.554 37.7686,-19.554 20.8597,0 37.7627,8.7369 37.7627,19.554 v 4.9058 c -0.4967,-0.8875 -1.0673,-1.7508 -1.755,-2.5829 -2.063,-2.5517 -4.9869,-4.7948 -8.6736,-6.7087 -7.3353,-3.7999 -17.038,-5.8766 -27.3341,-5.8766 -10.2961,0 -20.0048,2.0768 -27.34,5.8766 -3.6867,1.9138 -6.5855,4.157 -8.6676,6.7087 -0.6877,0.8321 -1.2644,1.6954 -1.761,2.5829 z m 0,-12.0652 v -4.9058 c 0,-10.7894 16.909,-19.5541 37.7686,-19.5541 20.8597,0 37.7627,8.7369 37.7627,19.5541 v 4.9058 c -0.4967,-0.8876 -1.0673,-1.7508 -1.755,-2.5829 -2.063,-2.5518 -4.9869,-4.7949 -8.6736,-6.7087 -7.3353,-3.7999 -17.038,-5.8766 -27.3341,-5.8766 -10.2961,0 -20.0048,2.0767 -27.34,5.8766 -3.6867,1.9138 -6.5855,4.157 -8.6676,6.7087 -0.6877,0.8321 -1.2644,1.6954 -1.761,2.5829 z m 0,-12.0653 v -4.9058 c 0,-10.7894 16.909,-19.554 37.7686,-19.554 20.8597,0 37.7627,8.7646 37.7627,19.554 v 4.9058 c -0.4967,-0.8875 -1.0673,-1.7508 -1.755,-2.5829 -2.063,-2.5517 -4.9869,-4.7948 -8.6736,-6.7087 -7.3353,-3.7998 -17.038,-5.8766 -27.3341,-5.8766 -10.2961,0 -20.0048,2.0768 -27.34,5.8766 -3.6867,1.9139 -6.5855,4.157 -8.6676,6.7087 -0.6877,0.8321 -1.2644,1.6954 -1.761,2.5829 z"
         id="path242" /></clipPath><linearGradient
       x1="0"
       y1="0"
       x2="100"
       y2="0"
       gradientUnits="userSpaceOnUse"
       gradientTransform="matrix(0,-1.12,-0.7753135,0,351.8584,440)"
       spreadMethod="pad"
       id="linearGradient258"><stop
         style="stop-opacity:1;stop-color:#9fc2e6"
         offset="0"
         id="stop254" /><stop
         style="stop-opacity:1;stop-color:#5178a1"
         offset="1"
         id="stop256" /></linearGradient><clipPath
       clipPathUnits="userSpaceOnUse"
       id="clipPath268"><path
         d="M 0,0 H 1024 V 768 H 0 Z"
         id="path266" /></clipPath><clipPath
       clipPathUnits="userSpaceOnUse"
       id="clipPath310"><path
         d="m 231.9805,509.5223 v -68.4757 h -15.2 v 68.4757 z"
         id="path308" /></clipPath><clipPath
       clipPathUnits="userSpaceOnUse"
       id="clipPath316"><path
         d="M 0,0 H 1024 V 768 H 0 Z"
         id="path314" /></clipPath><clipPath
       clipPathUnits="userSpaceOnUse"
       id="clipPath332"><path
         d="m 203.9198,456.6866 v 37.1957 h 23 v -37.1957 z"
         id="path330" /></clipPath><clipPath
       clipPathUnits="userSpaceOnUse"
       id="clipPath338"><path
         d="M 0,0 H 1024 V 768 H 0 Z"
         id="path336" /></clipPath><clipPath
       clipPathUnits="userSpaceOnUse"
       id="clipPath352"><path
         d="m 244.8411,494.6614 v -38.754 h -23 v 38.754 z"
         id="path350" /></clipPath><clipPath
       clipPathUnits="userSpaceOnUse"
       id="clipPath358"><path
         d="M 0,0 H 1024 V 768 H 0 Z"
         id="path356" /></clipPath><clipPath
       clipPathUnits="userSpaceOnUse"
       id="clipPath372"><path
         d="m 359.4585,509.5223 v -68.4757 h -15.2 v 68.4757 z"
         id="path370" /></clipPath><clipPath
       clipPathUnits="userSpaceOnUse"
       id="clipPath378"><path
         d="M 0,0 H 1024 V 768 H 0 Z"
         id="path376" /></clipPath><clipPath
       clipPathUnits="userSpaceOnUse"
       id="clipPath394"><path
         d="m 331.3978,456.6866 v 37.1957 h 23 v -37.1957 z"
         id="path392" /></clipPath><clipPath
       clipPathUnits="userSpaceOnUse"
       id="clipPath400"><path
         d="M 0,0 H 1024 V 768 H 0 Z"
         id="path398" /></clipPath><clipPath
       clipPathUnits="userSpaceOnUse"
       id="clipPath414"><path
         d="m 372.3191,494.6614 v -38.754 h -23 v 38.754 z"
         id="path412" /></clipPath><clipPath
       clipPathUnits="userSpaceOnUse"
       id="clipPath420"><path
         d="M 0,0 H 1024 V 768 H 0 Z"
         id="path418" /></clipPath><clipPath
       clipPathUnits="userSpaceOnUse"
       id="clipPath434"><path
         d="m 486.9364,509.5223 v -68.4757 h -15.2 v 68.4757 z"
         id="path432" /></clipPath><clipPath
       clipPathUnits="userSpaceOnUse"
       id="clipPath440"><path
         d="M 0,0 H 1024 V 768 H 0 Z"
         id="path438" /></clipPath><clipPath
       clipPathUnits="userSpaceOnUse"
       id="clipPath456"><path
         d="m 458.8758,456.6866 v 37.1957 h 23 v -37.1957 z"
         id="path454" /></clipPath><clipPath
       clipPathUnits="userSpaceOnUse"
       id="clipPath462"><path
         d="M 0,0 H 1024 V 768 H 0 Z"
         id="path460" /></clipPath><clipPath
       clipPathUnits="userSpaceOnUse"
       id="clipPath476"><path
         d="m 499.7971,494.6614 v -38.754 h -23 v 38.754 z"
         id="path474" /></clipPath><clipPath
       clipPathUnits="userSpaceOnUse"
       id="clipPath482"><path
         d="M 0,0 H 1024 V 768 H 0 Z"
         id="path480" /></clipPath><clipPath
       clipPathUnits="userSpaceOnUse"
       id="clipPath496"><path
         d="m 358.5642,608.2368 v -68.4756 h -15.2 v 68.4756 z"
         id="path494" /></clipPath><clipPath
       clipPathUnits="userSpaceOnUse"
       id="clipPath502"><path
         d="M 0,0 H 1024 V 768 H 0 Z"
         id="path500" /></clipPath><clipPath
       clipPathUnits="userSpaceOnUse"
       id="clipPath518"><path
         d="m 330.5035,555.4011 v 37.1958 h 23 v -37.1958 z"
         id="path516" /></clipPath><clipPath
       clipPathUnits="userSpaceOnUse"
       id="clipPath524"><path
         d="M 0,0 H 1024 V 768 H 0 Z"
         id="path522" /></clipPath><clipPath
       clipPathUnits="userSpaceOnUse"
       id="clipPath538"><path
         d="m 371.4248,593.376 v -38.754 h -23 v 38.754 z"
         id="path536" /></clipPath><clipPath
       clipPathUnits="userSpaceOnUse"
       id="clipPath544"><path
         d="M 0,0 H 1024 V 768 H 0 Z"
         id="path542" /></clipPath></defs><sodipodi:namedview
     pagecolor="#ffffff"
     bordercolor="#666666"
     borderopacity="1"
     objecttolerance="10"
     gridtolerance="10"
     guidetolerance="10"
     inkscape:pageopacity="0"
     inkscape:pageshadow="2"
     inkscape:window-width="1920"
     inkscape:window-height="1011"
     id="namedview4"
     showgrid="false"
     fit-margin-top="0"
     fit-margin-left="0"
     fit-margin-right="0"
     fit-margin-bottom="0"
     inkscape:zoom="0.88802668"
     inkscape:cx="6.0758852"
     inkscape:cy="48.277593"
     inkscape:window-x="0"
     inkscape:window-y="32"
     inkscape:window-maximized="1"
     inkscape:current-layer="g10" /><g
     id="g10"
     inkscape:groupmode="layer"
     inkscape:label="operators"
     transform="matrix(1.3333333,0,0,-1.3333333,-237.36719,891.66027)"><g
       id="g12" /><g
       id="g14"><path
         d="M 178.0254,610.2546 H 523.903 v 58.49062 H 178.0254 Z"
         style="fill:#96c3ea;fill-opacity:1;fill-rule:nonzero;stroke:none"
         id="path24" /></g><g
       id="g26"><g
         id="g28"
         clip-path="url(#clipPath32)"><g
           id="g34"
           transform="translate(278.4398,632.2667)"><text
             transform="scale(1,-1)"
             style="font-variant:normal;font-weight:bold;font-size:20px;font-family:DINAlternate;-inkscape-font-specification:DINAlternate-Bold;writing-mode:lr-tb;fill:#ffffff;fill-opacity:1;fill-rule:nonzero;stroke:none;"
             id="text38"><tspan
               x="0 11.124 16.280001 21.073999 31.073999 41.816002 47.372002 52.166 64.363998 74.744003 85.124001 90.279999 95.073997 103.95 113.95 119.506 124.3 134.3"
               y="0"
               sodipodi:role="line"
               id="tspan36"
               style="font-style:normal;font-variant:normal;font-weight:bold;font-stretch:normal;font-size:20px;font-family:Arial;-inkscape-font-specification:'Arial, Bold';font-variant-ligatures:normal;font-variant-caps:normal;font-variant-numeric:normal;font-variant-east-asian:normal">Client Application</tspan></text></g></g></g><g
       id="g40"><g
         id="g42"
         clip-path="url(#clipPath46)"><g
           id="g48"
           clip-path="url(#clipPath52)"><g
             id="g54"
             clip-path="url(#clipPath58)"><g
               id="g60"><g
                 id="g66"><path
                   d="M 0,0 H 1024 V 768 H 0 Z"
                   style="fill:url(#linearGradient72);stroke:none"
                   id="path74" /></g></g></g></g></g></g><g
       id="g76"><g
         id="g78"><g
           id="g84"><path
             d="m 204.216,511.54 h 295.285 v 26.20344 H 204.216 Z"
             style="fill:url(#linearGradient90);stroke:none"
             id="path92" /></g></g></g><g
       id="g94"><g
         id="g96"
         clip-path="url(#clipPath100)"><g
           id="g102"
           transform="translate(320.9027,519.1346)"><text
             transform="scale(1,-1)"
             style="font-variant:normal;font-weight:bold;font-size:15px;font-family:DINAlternate;-inkscape-font-specification:DINAlternate-Bold;writing-mode:lr-tb;fill:#ffffff;fill-opacity:1;fill-rule:nonzero;stroke:none;"
             id="text106"><tspan
               x="0 8.8920002 14.4585 21.9585 29.158501 35.815498 44.421001 53.5695"
               y="0"
               sodipodi:role="line"
               id="tspan104"
               style="font-style:normal;font-variant:normal;font-weight:bold;font-stretch:normal;font-size:15px;font-family:Arial;-inkscape-font-specification:'Arial, Bold';font-variant-ligatures:normal;font-variant-caps:normal;font-variant-numeric:normal;font-variant-east-asian:normal">ProxySQL</tspan></text></g></g></g><g
       id="g108"
       transform="translate(-0.14930016)"><g
         id="g110"
         clip-path="url(#clipPath114)"><g
           id="g116"
           clip-path="url(#clipPath120)"><g
             id="g122"
             clip-path="url(#clipPath126)"><g
               id="g128"><g
                 id="g134"><path
                   d="M 0,0 H 1024 V 768 H 0 Z"
                   style="fill:url(#linearGradient140);stroke:none"
                   id="path142" /></g></g></g></g></g></g><g
       id="g144"><g
         id="g146"
         clip-path="url(#clipPath150)"><g
           id="g152"
           clip-path="url(#clipPath156)"><g
             id="g158"><g
               id="g164"><path
                 d="M 0,0 H 1024 V 768 H 0 Z"
                 style="fill:url(#linearGradient170);stroke:none"
                 id="path172" /></g></g></g></g></g><g
       id="g174"><g
         id="g176"
         clip-path="url(#clipPath180)"><g
           id="g182"
           transform="translate(194.1214,416.5601)"><text
             transform="scale(1,-1)"
             style="font-variant:normal;font-weight:bold;font-size:14px;font-family:DINAlternate;-inkscape-font-specification:DINAlternate-Bold;writing-mode:lr-tb;fill:#ffffff;fill-opacity:1;fill-rule:nonzero;stroke:none;"
             id="text186"><tspan
               x="0 8.4392004 16.0804 24.0016 27.4988 35.686001 42.8232 50.226398 53.723598"
               y="0"
               sodipodi:role="line"
               id="tspan184"
               style="font-style:normal;font-variant:normal;font-weight:bold;font-stretch:normal;font-size:14px;font-family:Arial;-inkscape-font-specification:'Arial, Bold';font-variant-ligatures:normal;font-variant-caps:normal;font-variant-numeric:normal;font-variant-east-asian:normal">PXC Pod 1</tspan></text></g></g></g><g
       id="g188"><g
         id="g190"
         clip-path="url(#clipPath194)"><g
           id="g196"
           clip-path="url(#clipPath200)"><g
             id="g202"><g
               id="g208"><path
                 d="M 0,0 H 1024 V 768 H 0 Z"
                 style="fill:url(#linearGradient214);stroke:none"
                 id="path216" /></g></g></g></g></g><g
       id="g218"><g
         id="g220"
         clip-path="url(#clipPath224)"><g
           id="g226"
           transform="translate(448.9996,416.5601)"><text
             transform="scale(1,-1)"
             style="font-variant:normal;font-weight:bold;font-size:14px;font-family:DINAlternate;-inkscape-font-specification:DINAlternate-Bold;writing-mode:lr-tb;fill:#ffffff;fill-opacity:1;fill-rule:nonzero;stroke:none;"
             id="text230"><tspan
               x="0 8.4392004 16.0804 24.0016 27.4988 35.686001 42.8232 50.226398 53.723598"
               y="0"
               sodipodi:role="line"
               id="tspan228"
               style="font-style:normal;font-variant:normal;font-weight:bold;font-stretch:normal;font-size:14px;font-family:Arial;-inkscape-font-specification:'Arial, Bold';font-variant-ligatures:normal;font-variant-caps:normal;font-variant-numeric:normal;font-variant-east-asian:normal">PXC Pod 3</tspan></text></g></g></g><g
       id="g232"><g
         id="g234"
         clip-path="url(#clipPath238)"><g
           id="g240"
           clip-path="url(#clipPath244)"><g
             id="g246"><g
               id="g252"><path
                 d="M 0,0 H 1024 V 768 H 0 Z"
                 style="fill:url(#linearGradient258);stroke:none"
                 id="path260" /></g></g></g></g></g><g
       id="g262"><g
         id="g264"
         clip-path="url(#clipPath268)"><g
           id="g270"
           transform="translate(321.5605,416.5601)"><text
             transform="scale(1,-1)"
             style="font-variant:normal;font-weight:bold;font-size:14px;font-family:DINAlternate;-inkscape-font-specification:DINAlternate-Bold;writing-mode:lr-tb;fill:#ffffff;fill-opacity:1;fill-rule:nonzero;stroke:none;"
             id="text274"><tspan
               x="0 8.4392004 16.0804 24.0016 27.4988 35.686001 42.8232 50.226398 53.723598"
               y="0"
               sodipodi:role="line"
               id="tspan272"
               style="font-style:normal;font-variant:normal;font-weight:bold;font-stretch:normal;font-size:14px;font-family:Arial;-inkscape-font-specification:'Arial, Bold';font-variant-ligatures:normal;font-variant-caps:normal;font-variant-numeric:normal;font-variant-east-asian:normal">PXC Pod 2</tspan></text></g><g
           id="g276"
           transform="matrix(0,-1,-1,0,224.4193,325.9823)"><path
             d="m 8.6,0 h 1 21.27453"
             style="fill:none;stroke:#96c3ea;stroke-width:2;stroke-linecap:butt;stroke-linejoin:miter;stroke-miterlimit:4;stroke-dasharray:2, 2;stroke-dashoffset:0;stroke-opacity:1"
             id="path278" /></g><path
           d="m 229.2193,316.3823 -4.8,9.6 -4.8,-9.6 z"
           style="fill:#96c3ea;fill-opacity:1;fill-rule:nonzero;stroke:none"
           id="path280" /><g
           id="g282"
           transform="matrix(1,0,0,-1,223.4231,296.2522)"><path
             d="M 0,0 H 256.8708"
             style="fill:none;stroke:#96c3ea;stroke-width:2;stroke-linecap:butt;stroke-linejoin:miter;stroke-miterlimit:4;stroke-dasharray:2, 2;stroke-dashoffset:0;stroke-opacity:1"
             id="path284" /></g><g
           id="g286"
           transform="matrix(0,-1,-1,0,351.8585,325.9823)"><path
             d="m 8.6,0 h 1 21.27453"
             style="fill:none;stroke:#96c3ea;stroke-width:2;stroke-linecap:butt;stroke-linejoin:miter;stroke-miterlimit:4;stroke-dasharray:2, 2;stroke-dashoffset:0;stroke-opacity:1"
             id="path288" /></g><path
           d="m 356.6585,316.3823 -4.8,9.6 -4.8,-9.6 z"
           style="fill:#96c3ea;fill-opacity:1;fill-rule:nonzero;stroke:none"
           id="path290" /><g
           id="g292"
           transform="matrix(0,-1,-1,0,479.2976,325.9823)"><path
             d="m 8.6,0 h 1 21.27453"
             style="fill:none;stroke:#96c3ea;stroke-width:2;stroke-linecap:butt;stroke-linejoin:miter;stroke-miterlimit:4;stroke-dasharray:2, 2;stroke-dashoffset:0;stroke-opacity:1"
             id="path294" /></g><path
           d="m 484.0976,316.3823 -4.8,9.6 -4.8,-9.6 z"
           style="fill:#96c3ea;fill-opacity:1;fill-rule:nonzero;stroke:none"
           id="path296" /><g
           id="g298"
           transform="translate(296.5496,280.4173)"><text
             transform="scale(1,-1)"
             style="font-variant:normal;font-weight:bold;font-size:14px;font-family:DINAlternate;-inkscape-font-specification:DINAlternate-Bold;writing-mode:lr-tb;fill:#00235a;fill-opacity:1;fill-rule:nonzero;stroke:none;"
             id="text302"><tspan
               x="0 8.6786003 15.8172 19.567801 26.7064 32.039001 39.177601 42.676201 51.354801 58.493401 65.898003 69.648598 73.147202 79.501801 86.640404 90.670998 94.169601 101.3082"
               y="0"
               sodipodi:role="line"
               id="tspan300"
               style="font-style:normal;font-variant:normal;font-weight:bold;font-stretch:normal;font-size:14px;font-family:Arial;-inkscape-font-specification:'Arial, Bold';font-variant-ligatures:normal;font-variant-caps:normal;font-variant-numeric:normal;font-variant-east-asian:normal">Galera Replication</tspan></text></g></g></g><g
       id="g304"><g
         id="g306"
         clip-path="url(#clipPath310)"><g
           id="g312"
           clip-path="url(#clipPath316)"><g
             id="g318"
             transform="matrix(0,-1,-1,0,224.3805,508.5223)"><path
               d="m 11.7,0 h 1.5 40.07569 1.5"
               style="fill:none;stroke:#4479a5;stroke-width:3;stroke-linecap:butt;stroke-linejoin:miter;stroke-miterlimit:4;stroke-dasharray:none;stroke-opacity:1"
               id="path320" /></g><path
             d="m 217.7805,455.2466 6.6,-13.2 6.6,13.2 z"
             style="fill:#4479a5;fill-opacity:1;fill-rule:nonzero;stroke:none"
             id="path322" /><path
             d="m 230.9805,495.3223 -6.6,13.2 -6.6,-13.2 z"
             style="fill:#4479a5;fill-opacity:1;fill-rule:nonzero;stroke:none"
             id="path324" /></g></g></g><g
       id="g326"><g
         id="g328"
         clip-path="url(#clipPath332)"><g
           id="g334"
           clip-path="url(#clipPath338)"><g
             id="g340"
             transform="rotate(90,-120.35285,340.33375)"><text
               transform="scale(1,-1)"
               style="font-variant:normal;font-weight:bold;font-size:13px;font-family:DINAlternate;-inkscape-font-specification:DINAlternate-Bold;writing-mode:lr-tb;fill:#00235a;fill-opacity:1;fill-rule:nonzero;stroke:none;"
               id="text344"><tspan
                 x="0 8.0586996 14.6874 21.316099"
                 y="0"
                 sodipodi:role="line"
                 id="tspan342"
                 style="font-style:normal;font-variant:normal;font-weight:bold;font-stretch:normal;font-size:13px;font-family:Arial;-inkscape-font-specification:'Arial, Bold';font-variant-ligatures:normal;font-variant-caps:normal;font-variant-numeric:normal;font-variant-east-asian:normal">Read</tspan></text></g></g></g></g><g
       id="g346"><g
         id="g348"
         clip-path="url(#clipPath352)"><g
           id="g354"
           clip-path="url(#clipPath358)"><g
             id="g360"
             transform="rotate(-90,359.72075,130.94065)"><text
               transform="scale(1,-1)"
               style="font-variant:normal;font-weight:bold;font-size:13px;font-family:DINAlternate;-inkscape-font-specification:DINAlternate-Bold;writing-mode:lr-tb;fill:#00235a;fill-opacity:1;fill-rule:nonzero;stroke:none;"
               id="text364"><tspan
                 x="0 10.946 16.132999 19.382999 23.127001"
                 y="0"
                 sodipodi:role="line"
                 id="tspan362"
                 style="font-style:normal;font-variant:normal;font-weight:bold;font-stretch:normal;font-size:13px;font-family:Arial;-inkscape-font-specification:'Arial, Bold';font-variant-ligatures:normal;font-variant-caps:normal;font-variant-numeric:normal;font-variant-east-asian:normal">Write</tspan></text></g></g></g></g><g
       id="g366"><g
         id="g368"
         clip-path="url(#clipPath372)"><g
           id="g374"
           clip-path="url(#clipPath378)"><g
             id="g380"
             transform="matrix(0,-1,-1,0,351.8585,508.5223)"><path
               d="m 11.7,0 h 1.5 40.07569 1.5"
               style="fill:none;stroke:#4479a5;stroke-width:3;stroke-linecap:butt;stroke-linejoin:miter;stroke-miterlimit:4;stroke-dasharray:none;stroke-opacity:1"
               id="path382" /></g><path
             d="m 345.2585,455.2466 6.6,-13.2 6.6,13.2 z"
             style="fill:#4479a5;fill-opacity:1;fill-rule:nonzero;stroke:none"
             id="path384" /><path
             d="m 358.4585,495.3223 -6.6,13.2 -6.6,-13.2 z"
             style="fill:#4479a5;fill-opacity:1;fill-rule:nonzero;stroke:none"
             id="path386" /></g></g></g><g
       id="g388"><g
         id="g390"
         clip-path="url(#clipPath394)"><g
           id="g396"
           clip-path="url(#clipPath400)"><g
             id="g402"
             transform="rotate(90,-56.6139,404.0727)"><text
               transform="scale(1,-1)"
               style="font-variant:normal;font-weight:bold;font-size:13px;font-family:DINAlternate;-inkscape-font-specification:DINAlternate-Bold;writing-mode:lr-tb;fill:#00235a;fill-opacity:1;fill-rule:nonzero;stroke:none;"
               id="text406"><tspan
                 x="0 8.0586996 14.6874 21.316099"
                 y="0"
                 sodipodi:role="line"
                 id="tspan404"
                 style="font-style:normal;font-variant:normal;font-weight:bold;font-stretch:normal;font-size:13px;font-family:Arial;-inkscape-font-specification:'Arial, Bold';font-variant-ligatures:normal;font-variant-caps:normal;font-variant-numeric:normal;font-variant-east-asian:normal">Read</tspan></text></g></g></g></g><g
       id="g408"><g
         id="g410"
         clip-path="url(#clipPath414)"><g
           id="g416"
           clip-path="url(#clipPath420)"><g
             id="g422"
             transform="rotate(-90,423.45975,67.20165)"><text
               transform="scale(1,-1)"
               style="font-variant:normal;font-weight:bold;font-size:13px;font-family:DINAlternate;-inkscape-font-specification:DINAlternate-Bold;writing-mode:lr-tb;fill:#00235a;fill-opacity:1;fill-rule:nonzero;stroke:none;"
               id="text426"><tspan
                 x="0 10.946 16.132999 19.382999 23.127001"
                 y="0"
                 sodipodi:role="line"
                 id="tspan424"
                 style="font-style:normal;font-variant:normal;font-weight:bold;font-stretch:normal;font-size:13px;font-family:Arial;-inkscape-font-specification:'Arial, Bold';font-variant-ligatures:normal;font-variant-caps:normal;font-variant-numeric:normal;font-variant-east-asian:normal">Write</tspan></text></g></g></g></g><g
       id="g428"><g
         id="g430"
         clip-path="url(#clipPath434)"><g
           id="g436"
           clip-path="url(#clipPath440)"><g
             id="g442"
             transform="matrix(0,-1,-1,0,479.3364,508.5223)"><path
               d="m 11.7,0 h 1.5 40.07569 1.5"
               style="fill:none;stroke:#4479a5;stroke-width:3;stroke-linecap:butt;stroke-linejoin:miter;stroke-miterlimit:4;stroke-dasharray:none;stroke-opacity:1"
               id="path444" /></g><path
             d="m 472.7364,455.2466 6.6,-13.2 6.6,13.2 z"
             style="fill:#4479a5;fill-opacity:1;fill-rule:nonzero;stroke:none"
             id="path446" /><path
             d="m 485.9364,495.3223 -6.6,13.2 -6.6,-13.2 z"
             style="fill:#4479a5;fill-opacity:1;fill-rule:nonzero;stroke:none"
             id="path448" /></g></g></g><g
       id="g450"><g
         id="g452"
         clip-path="url(#clipPath456)"><g
           id="g458"
           clip-path="url(#clipPath462)"><g
             id="g464"
             transform="rotate(90,7.1251,467.8117)"><text
               transform="scale(1,-1)"
               style="font-variant:normal;font-weight:bold;font-size:13px;font-family:DINAlternate;-inkscape-font-specification:DINAlternate-Bold;writing-mode:lr-tb;fill:#00235a;fill-opacity:1;fill-rule:nonzero;stroke:none;"
               id="text468"><tspan
                 x="0 8.0586996 14.6874 21.316099"
                 y="0"
                 sodipodi:role="line"
                 id="tspan466"
                 style="font-style:normal;font-variant:normal;font-weight:bold;font-stretch:normal;font-size:13px;font-family:Arial;-inkscape-font-specification:'Arial, Bold';font-variant-ligatures:normal;font-variant-caps:normal;font-variant-numeric:normal;font-variant-east-asian:normal">Read</tspan></text></g></g></g></g><g
       id="g470"><g
         id="g472"
         clip-path="url(#clipPath476)"><g
           id="g478"
           clip-path="url(#clipPath482)"><g
             id="g484"
             transform="rotate(-90,487.1987,3.4627)"><text
               transform="scale(1,-1)"
               style="font-variant:normal;font-weight:bold;font-size:13px;font-family:DINAlternate;-inkscape-font-specification:DINAlternate-Bold;writing-mode:lr-tb;fill:#00235a;fill-opacity:1;fill-rule:nonzero;stroke:none;"
               id="text488"><tspan
                 x="0 10.946 16.132999 19.382999 23.127001"
                 y="0"
                 sodipodi:role="line"
                 id="tspan486"
                 style="font-style:normal;font-variant:normal;font-weight:bold;font-stretch:normal;font-size:13px;font-family:Arial;-inkscape-font-specification:'Arial, Bold';font-variant-ligatures:normal;font-variant-caps:normal;font-variant-numeric:normal;font-variant-east-asian:normal">Write</tspan></text></g></g></g></g><g
       id="g490"><g
         id="g492"
         clip-path="url(#clipPath496)"><g
           id="g498"
           clip-path="url(#clipPath502)"><g
             id="g504"
             transform="matrix(0,-1,-1,0,350.9642,607.2368)"><path
               d="m 11.7,0 h 1.5 40.07569 1.5"
               style="fill:none;stroke:#4479a5;stroke-width:3;stroke-linecap:butt;stroke-linejoin:miter;stroke-miterlimit:4;stroke-dasharray:none;stroke-opacity:1"
               id="path506" /></g><path
             d="m 344.3642,553.9612 6.6,-13.2 6.6,13.2 z"
             style="fill:#4479a5;fill-opacity:1;fill-rule:nonzero;stroke:none"
             id="path508" /><path
             d="m 357.5642,594.0368 -6.6,13.2 -6.6,-13.2 z"
             style="fill:#4479a5;fill-opacity:1;fill-rule:nonzero;stroke:none"
             id="path510" /></g></g></g><g
       id="g512"><g
         id="g514"
         clip-path="url(#clipPath518)"><g
           id="g520"
           clip-path="url(#clipPath524)"><g
             id="g526"
             transform="rotate(90,-106.41825,452.98285)"><text
               transform="scale(1,-1)"
               style="font-variant:normal;font-weight:bold;font-size:13px;font-family:DINAlternate;-inkscape-font-specification:DINAlternate-Bold;writing-mode:lr-tb;fill:#00235a;fill-opacity:1;fill-rule:nonzero;stroke:none;"
               id="text530"><tspan
                 x="0 8.0586996 14.6874 21.316099"
                 y="0"
                 sodipodi:role="line"
                 id="tspan528"
                 style="font-style:normal;font-variant:normal;font-weight:bold;font-stretch:normal;font-size:13px;font-family:Arial;-inkscape-font-specification:'Arial, Bold';font-variant-ligatures:normal;font-variant-caps:normal;font-variant-numeric:normal;font-variant-east-asian:normal">Read</tspan></text></g></g></g></g><g
       id="g532"><g
         id="g534"
         clip-path="url(#clipPath538)"><g
           id="g540"
           clip-path="url(#clipPath544)"><g
             id="g546"
             transform="rotate(-90,472.3699,117.0061)"><text
               transform="scale(1,-1)"
               style="font-variant:normal;font-weight:bold;font-size:13px;font-family:DINAlternate;-inkscape-font-specification:DINAlternate-Bold;writing-mode:lr-tb;fill:#00235a;fill-opacity:1;fill-rule:nonzero;stroke:none;"
               id="text550"><tspan
                 x="0 10.946 16.132999 19.382999 23.127001"
                 y="0"
                 sodipodi:role="line"
                 id="tspan548"
                 style="font-style:normal;font-variant:normal;font-weight:bold;font-stretch:normal;font-size:13px;font-family:Arial;-inkscape-font-specification:'Arial, Bold';font-variant-ligatures:normal;font-variant-caps:normal;font-variant-numeric:normal;font-variant-east-asian:normal">Write</tspan></text></g></g></g></g></g></svg>
